<?xml version="1.0" encoding="utf-8"?>
<!-- Generator: Adobe Illustrator 16.0.0, SVG Export Plug-In . SVG Version: 6.00 Build 0)  -->
<!DOCTYPE svg PUBLIC "-//W3C//DTD SVG 1.1//EN" "http://www.w3.org/Graphics/SVG/1.1/DTD/svg11.dtd">
<svg version="1.1" id="Layer_1" xmlns="http://www.w3.org/2000/svg" xmlns:xlink="http://www.w3.org/1999/xlink" x="0px" y="0px"
	 width="524.705px" height="142.79px" viewBox="0 0 524.705 142.79" enable-background="new 0 0 524.705 142.79"
	 xml:space="preserve">
<g>
	<polygon fill="#4F2D29" points="1.695,27.625 3.947,27.625 91.858,27.625 93.626,27.625 93.626,24.199 1.695,24.199 	"/>
	<path fill="#2D1613" d="M92.292,19.36C86.568,4.428,86.771,0.125,82.173,0.125c-3.927-1.063-19.481,4.911-28.456,8.589H7.966
		L2.677,19.36H0v4.838h1.695h91.931h1.876V19.36H92.292z"/>
	<g>
		<path fill="#0E2136" d="M159.845,121.328h-8.696c-0.708,0-1.314-0.404-1.618-1.011l-9.91-19.921h-12.235
			c-0.607,0-1.112,0.506-1.112,1.112v18.707c0,0.606-0.506,1.112-1.112,1.112h-7.685V46.297h7.685c0.606,0,1.112,0.506,1.112,1.112
			v46.414c0.505-1.011,1.517-1.719,2.73-1.719h12.438c3.337,0,5.966-2.73,5.966-6.067V71.881c0-0.607,0.506-1.112,1.112-1.112h7.686
			v14.864c0,5.562-3.034,10.415-7.686,12.943L159.845,121.328z"/>
		<path fill="#0E2136" d="M207.168,84.925v33.167c0,1.82-1.416,3.236-3.236,3.236h-1.112h-4.449h-18.1
			c-8.191,0-14.764-6.573-14.764-14.764v-3.135c0-8.19,6.573-14.764,14.764-14.764h17.089c0.607,0,1.112-0.505,1.112-1.112v-2.527
			c0-3.236-2.124-5.967-6.067-5.967h-20.123c-0.606,0-1.112-0.505-1.112-1.112v-7.179h21.235
			C200.596,70.769,207.168,75.723,207.168,84.925z M180.271,112.733h17.19c0.607,0,1.011-0.506,1.011-1.112V95.543
			c-0.505,0.909-1.517,1.415-2.629,1.517h-15.572c-3.337,0-5.966,2.629-5.966,5.966v3.741
			C174.305,110.104,176.934,112.733,180.271,112.733z"/>
		<path fill="#0E2136" d="M214.146,70.667h8.595c0.505,0,1.011,0.404,1.213,0.91l14.056,35.897l14.056-35.897
			c0.202-0.506,0.708-0.91,1.314-0.91h8.595l-20.729,49.853c-0.202,0.505-0.708,0.809-1.213,0.809h-4.146
			c-0.505,0-1.011-0.304-1.213-0.809L214.146,70.667z"/>
		<path fill="#0E2136" d="M269.459,106.564V85.127c0-9.404,6.573-14.358,14.764-14.358h13.55c8.19,0,14.764,4.954,14.764,14.358
			v11.629c0,1.719-0.202,3.135-2.629,3.135H282.2c-1.618,0-3.033-0.708-3.943-1.921v8.999c0,3.337,2.629,5.967,5.966,5.967h25.078
			c0.606,0,1.112,0.505,1.112,1.112v7.28h-26.19C276.032,121.328,269.459,114.755,269.459,106.564z M284.223,79.06
			c-3.337,0-5.966,1.922-5.966,5.967v5.46c0,0.606,0.404,1.012,1.011,1.112h23.562c0.606,0,1.112-0.506,1.112-1.112v-5.46
			c0-4.045-1.922-5.967-5.865-5.967H284.223z"/>
	</g>
	<g>
		<path fill="#244D72" d="M337.314,84.933v21.74c0,3.337,2.629,5.967,5.967,5.967h17.898c0.606,0,1.112,0.505,1.112,1.112v7.28
			h-19.011c-8.09,0-14.764-6.573-14.764-14.764V85.337c0-8.19,6.674-14.764,14.764-14.764h19.011v7.28
			c0,0.607-0.506,1.012-1.112,1.012h-17.898C339.943,78.865,337.314,81.596,337.314,84.933z"/>
		<path fill="#244D72" d="M388.28,121.74c-8.191,0-14.764-6.573-14.764-14.764V84.528c0-8.09,6.572-14.764,14.764-14.764h13.348
			c8.19,0,14.864,6.674,14.864,14.764v22.448c0,8.19-6.674,14.764-14.864,14.764H388.28z M382.313,84.123v23.258
			c0,3.337,2.63,6.067,5.967,6.067h13.348c3.337,0,6.067-2.73,6.067-6.067V84.123c0-3.235-2.73-5.966-6.067-5.966H388.28
			C384.943,78.157,382.313,80.888,382.313,84.123z"/>
		<path fill="#244D72" d="M442.479,70.473h11.73c3.235,0,5.764,1.517,6.977,3.235V46.305c0-0.607,0.506-1.112,1.112-1.112h7.686
			v72.604c0,1.819-1.416,3.235-3.236,3.235h-24.066c-8.19,0-14.764-6.573-14.764-14.764V85.235
			C427.918,77.045,434.289,70.473,442.479,70.473z M436.716,106.673c0,3.337,2.629,5.967,5.966,5.967h17.393
			c0.607,0,1.112-0.405,1.112-1.012V84.022c-0.202-2.73-2.325-4.854-4.854-5.157h-13.651c-3.337,0-5.966,2.629-5.966,5.966V106.673z
			"/>
		<path fill="#244D72" d="M482.22,106.269V84.831c0-9.404,6.572-14.358,14.764-14.358h13.55c8.19,0,14.764,4.954,14.764,14.358
			V96.46c0,1.719-0.202,3.135-2.629,3.135h-27.707c-1.618,0-3.034-0.708-3.944-1.921v8.999c0,3.337,2.63,5.967,5.967,5.967h25.077
			c0.607,0,1.112,0.505,1.112,1.112v7.28h-26.189C488.792,121.032,482.22,114.459,482.22,106.269z M496.983,78.764
			c-3.337,0-5.967,1.922-5.967,5.967v5.46c0,0.606,0.405,1.012,1.012,1.112h23.561c0.607,0,1.112-0.506,1.112-1.112v-5.46
			c0-4.045-1.921-5.967-5.864-5.967H496.983z"/>
	</g>
	<path fill="#2D1613" d="M3.947,27.625l8.364,103.582l35.59,11.584l35.592-11.869l8.365-103.296H3.947z"/>
	<path fill="#4F2D29" stroke="#4F2C28" stroke-width="0.25" stroke-miterlimit="10" d="M48.023,35.682v98.914l28.954-10.458
		l6.516-88.456H48.023z"/>
	<g>
		<g>
			<path fill="#FFFEFE" d="M43.392,66.618v33.04h-6.92c-0.894,0-1.229-0.446-1.229-1.34v-33.04h6.921
				C42.945,65.278,43.392,65.725,43.392,66.618z M60.805,99.658h-7.032c-0.893,0-1.34-0.446-1.34-1.34v-33.04h7.032
				c0.893,0,1.34,0.446,1.34,1.34V99.658z"/>
		</g>
	</g>
</g>
</svg>
