<?xml version="1.0" encoding="utf-8"?>
<!-- Generator: Adobe Illustrator 16.0.0, SVG Export Plug-In . SVG Version: 6.00 Build 0)  -->
<!DOCTYPE svg PUBLIC "-//W3C//DTD SVG 1.1//EN" "http://www.w3.org/Graphics/SVG/1.1/DTD/svg11.dtd">
<svg version="1.1" id="Layer_1" xmlns="http://www.w3.org/2000/svg" xmlns:xlink="http://www.w3.org/1999/xlink" x="0px" y="0px"
	 width="414.006px" height="113.711px" viewBox="0 0 414.006 113.711" enable-background="new 0 0 414.006 113.711"
	 xml:space="preserve">
<path fill="#FFFEFE" d="M47.125,77.629h-5.424c-0.689,0-1.034-0.346-1.034-1.033v-25.48h5.426c0.686,0,1.032,0.342,1.032,1.032
	V77.629z"/>
<g>
	<path fill="#FFFFFF" d="M124.494,94.494h-6.772c-0.551,0-1.024-0.315-1.26-0.788l-7.718-15.514h-9.529
		c-0.472,0-0.866,0.394-0.866,0.866v14.569c0,0.473-0.394,0.866-0.866,0.866h-5.985V36.061h5.985c0.473,0,0.866,0.394,0.866,0.866
		v36.147c0.394-0.788,1.182-1.339,2.126-1.339h9.687c2.599,0,4.646-2.126,4.646-4.725V55.984c0-0.472,0.394-0.866,0.866-0.866h5.985
		v11.577c0,4.331-2.363,8.111-5.985,10.08L124.494,94.494z"/>
	<path fill="#FFFFFF" d="M161.352,66.144v25.83c0,1.417-1.103,2.52-2.52,2.52h-0.866H154.5h-14.096
		c-6.379,0-11.498-5.119-11.498-11.498v-2.441c0-6.379,5.119-11.498,11.498-11.498h13.309c0.473,0,0.866-0.394,0.866-0.866v-1.969
		c0-2.52-1.654-4.646-4.725-4.646h-15.671c-0.472,0-0.866-0.394-0.866-0.866v-5.591h16.538
		C156.233,55.118,161.352,58.977,161.352,66.144z M140.404,87.8h13.387c0.473,0,0.788-0.394,0.788-0.866V74.412
		c-0.394,0.709-1.181,1.103-2.047,1.181h-12.127c-2.599,0-4.646,2.048-4.646,4.646v2.914C135.758,85.752,137.805,87.8,140.404,87.8z
		"/>
	<path fill="#FFFFFF" d="M166.789,55.04h6.694c0.394,0,0.788,0.315,0.945,0.709l10.946,27.956l10.946-27.956
		c0.158-0.394,0.551-0.709,1.024-0.709h6.694l-16.144,38.824c-0.157,0.394-0.551,0.63-0.945,0.63h-3.229
		c-0.394,0-0.788-0.236-0.945-0.63L166.789,55.04z"/>
	<path fill="#FFFFFF" d="M209.868,82.996V66.301c0-7.324,5.119-11.183,11.498-11.183h10.553c6.379,0,11.497,3.859,11.497,11.183
		v9.057c0,1.338-0.157,2.441-2.047,2.441h-21.578c-1.26,0-2.362-0.551-3.071-1.496v7.009c0,2.599,2.048,4.646,4.646,4.646h19.53
		c0.473,0,0.866,0.394,0.866,0.866v5.67h-20.396C214.987,94.494,209.868,89.375,209.868,82.996z M221.366,61.576
		c-2.599,0-4.646,1.497-4.646,4.646v4.252c0,0.473,0.315,0.788,0.788,0.866h18.349c0.473,0,0.866-0.394,0.866-0.866v-4.252
		c0-3.15-1.496-4.646-4.567-4.646H221.366z"/>
</g>
<g>
	<path fill="#CED0D3" d="M262.715,66.149V83.08c0,2.599,2.048,4.646,4.646,4.646H281.3c0.473,0,0.866,0.394,0.866,0.866v5.67
		h-14.805c-6.3,0-11.498-5.119-11.498-11.498V66.464c0-6.379,5.198-11.498,11.498-11.498h14.805v5.67
		c0,0.473-0.394,0.788-0.866,0.788h-13.938C264.763,61.424,262.715,63.55,262.715,66.149z"/>
	<path fill="#CED0D3" d="M302.409,94.814c-6.379,0-11.498-5.119-11.498-11.498V65.833c0-6.3,5.119-11.498,11.498-11.498h10.395
		c6.379,0,11.576,5.198,11.576,11.498v17.483c0,6.379-5.197,11.498-11.576,11.498H302.409z M297.762,65.519v18.113
		c0,2.599,2.048,4.725,4.646,4.725h10.395c2.599,0,4.726-2.126,4.726-4.725V65.519c0-2.52-2.127-4.646-4.726-4.646h-10.395
		C299.81,60.873,297.762,62.999,297.762,65.519z"/>
	<path fill="#CED0D3" d="M344.623,54.887h9.135c2.52,0,4.488,1.182,5.434,2.52V36.066c0-0.473,0.394-0.866,0.866-0.866h5.985v56.543
		c0,1.417-1.103,2.52-2.521,2.52H344.78c-6.379,0-11.498-5.119-11.498-11.498v-16.38C333.282,60.006,338.244,54.887,344.623,54.887z
		 M340.133,83.08c0,2.599,2.048,4.646,4.646,4.646h13.545c0.473,0,0.866-0.315,0.866-0.788V65.44
		c-0.157-2.126-1.812-3.78-3.78-4.016H344.78c-2.599,0-4.646,2.047-4.646,4.646V83.08z"/>
	<path fill="#CED0D3" d="M375.573,82.765V66.07c0-7.324,5.119-11.183,11.498-11.183h10.553c6.379,0,11.497,3.859,11.497,11.183
		v9.057c0,1.338-0.157,2.441-2.047,2.441h-21.578c-1.26,0-2.362-0.551-3.071-1.496v7.009c0,2.599,2.048,4.646,4.646,4.646h19.53
		c0.473,0,0.866,0.394,0.866,0.866v5.67h-20.396C380.692,94.263,375.573,89.144,375.573,82.765z M387.071,61.345
		c-2.599,0-4.646,1.497-4.646,4.646v4.252c0,0.473,0.315,0.788,0.788,0.866h18.349c0.473,0,0.866-0.394,0.866-0.866v-4.252
		c0-3.15-1.496-4.646-4.567-4.646H387.071z"/>
</g>
<path fill="#FFFFFF" d="M71.881,15.077c-4.459-11.629-4.302-14.98-7.882-14.98C60.941-0.729,48.827,3.92,41.836,6.787H6.206
	l-4.12,8.291H0v3.771h1.32h71.601h1.459v-3.771H71.881z"/>
<path fill="#FFFFFF" d="M3.072,21.515l6.516,80.671l27.72,9.024l27.72-9.247l6.515-80.449H3.072z M33.522,77.733h-5.377
	c-0.692,0-0.953-0.347-0.953-1.042V51.029h5.375c0.606,0,0.956,0.347,0.956,1.039V77.733z M59.953,96.683l-22.551,8.146V27.791
	h27.626L59.953,96.683z"/>
<path fill="none" stroke="#FFFFFF" stroke-width="0.25" stroke-miterlimit="10" d="M37.402,27.791v77.038l22.551-8.146l5.075-68.892
	H37.402z M47.049,77.733h-5.462c-0.696,0-1.042-0.347-1.042-1.042V51.029h5.461c0.696,0,1.043,0.347,1.043,1.039V77.733z"/>
</svg>
