<?xml version="1.0" encoding="utf-8"?>
<!-- Generator: Adobe Illustrator 16.0.0, SVG Export Plug-In . SVG Version: 6.00 Build 0)  -->
<!DOCTYPE svg PUBLIC "-//W3C//DTD SVG 1.1//EN" "http://www.w3.org/Graphics/SVG/1.1/DTD/svg11.dtd">
<svg version="1.1" id="Layer_1" xmlns="http://www.w3.org/2000/svg" xmlns:xlink="http://www.w3.org/1999/xlink" x="0px" y="0px"
	 width="629.908px" height="171.226px" viewBox="0 0 629.908 171.226" enable-background="new 0 0 629.908 171.226"
	 xml:space="preserve">
<polygon fill="#4F2D29" points="2.032,33.125 4.733,33.125 110.151,33.125 112.271,33.125 112.271,29.018 2.032,29.018 "/>
<path fill="#2D1613" d="M110.671,23.216C103.808,5.31,104.051,0.15,98.536,0.15c-4.708-1.275-23.36,5.889-34.123,10.299H9.552
	L3.209,23.216H0v5.802h2.032h110.238h2.25v-5.802H110.671z"/>
<g>
	<path fill="#0E2136" d="M191.68,145.489h-10.429c-0.849,0-1.576-0.484-1.94-1.212l-11.884-23.889h-14.673
		c-0.728,0-1.333,0.606-1.333,1.334v22.433c0,0.729-0.606,1.334-1.334,1.334h-9.216V55.514h9.216c0.728,0,1.334,0.606,1.334,1.334
		v55.659c0.606-1.213,1.819-2.062,3.274-2.062h14.915c4.001,0,7.154-3.274,7.154-7.276V86.193c0-0.728,0.606-1.334,1.334-1.334
		h9.216v17.826c0,6.67-3.638,12.49-9.216,15.521L191.68,145.489z"/>
	<path fill="#0E2136" d="M248.427,101.835v39.774c0,2.183-1.698,3.88-3.88,3.88h-1.334h-5.335h-21.706
		c-9.822,0-17.704-7.881-17.704-17.703v-3.76c0-9.822,7.882-17.704,17.704-17.704h20.493c0.728,0,1.334-0.606,1.334-1.334v-3.031
		c0-3.88-2.546-7.155-7.275-7.155h-24.131c-0.728,0-1.334-0.605-1.334-1.333v-8.61h25.465
		C240.545,84.859,248.427,90.801,248.427,101.835z M216.171,135.183h20.615c0.728,0,1.212-0.606,1.212-1.334v-19.281
		c-0.606,1.092-1.819,1.698-3.153,1.819h-18.674c-4.001,0-7.154,3.153-7.154,7.155v4.486
		C209.017,132.03,212.17,135.183,216.171,135.183z"/>
	<path fill="#0E2136" d="M256.792,84.738H267.1c0.606,0,1.212,0.485,1.455,1.091l16.855,43.048l16.855-43.048
		c0.243-0.606,0.849-1.091,1.577-1.091h10.307l-24.858,59.782c-0.243,0.606-0.849,0.97-1.456,0.97h-4.972
		c-0.606,0-1.212-0.363-1.455-0.97L256.792,84.738z"/>
	<path fill="#0E2136" d="M323.12,127.786v-25.708c0-11.277,7.882-17.219,17.704-17.219h16.25c9.822,0,17.703,5.942,17.703,17.219
		v13.944c0,2.063-0.242,3.76-3.152,3.76h-33.226c-1.94,0-3.638-0.849-4.729-2.304v10.792c0,4.002,3.152,7.154,7.154,7.154h30.073
		c0.728,0,1.334,0.606,1.334,1.334v8.73h-31.407C331.002,145.489,323.12,137.608,323.12,127.786z M340.824,94.802
		c-4.002,0-7.154,2.305-7.154,7.155v6.548c0,0.728,0.485,1.213,1.212,1.334h28.254c0.728,0,1.334-0.606,1.334-1.334v-6.548
		c0-4.851-2.305-7.155-7.033-7.155H340.824z"/>
</g>
<g>
	<path fill="#244D72" d="M404.489,101.844v26.071c0,4.002,3.153,7.154,7.154,7.154h21.464c0.727,0,1.334,0.606,1.334,1.334v8.73
		h-22.798c-9.7,0-17.704-7.881-17.704-17.703v-25.102c0-9.822,8.004-17.705,17.704-17.705h22.798v8.731
		c0,0.728-0.607,1.213-1.334,1.213h-21.464C407.642,94.568,404.489,97.843,404.489,101.844z"/>
	<path fill="#244D72" d="M465.603,145.983c-9.822,0-17.705-7.883-17.705-17.705v-26.92c0-9.701,7.883-17.704,17.705-17.704h16.006
		c9.822,0,17.826,8.002,17.826,17.704v26.92c0,9.822-8.004,17.705-17.826,17.705H465.603z M458.449,100.874v27.891
		c0,4.001,3.152,7.275,7.154,7.275h16.006c4.002,0,7.275-3.274,7.275-7.275v-27.891c0-3.881-3.273-7.154-7.275-7.154h-16.006
		C461.601,93.72,458.449,96.993,458.449,100.874z"/>
	<path fill="#244D72" d="M530.596,84.503h14.066c3.88,0,6.911,1.819,8.366,3.88V55.522c0-0.728,0.607-1.334,1.334-1.334h9.217
		v87.066c0,2.183-1.697,3.88-3.881,3.88h-28.859c-9.822,0-17.705-7.881-17.705-17.703v-25.223
		C513.134,92.386,520.775,84.503,530.596,84.503z M523.685,127.915c0,4.002,3.152,7.154,7.154,7.154h20.857
		c0.727,0,1.332-0.484,1.332-1.213v-33.104c-0.242-3.274-2.787-5.82-5.82-6.185h-16.369c-4.002,0-7.154,3.153-7.154,7.154V127.915z"
		/>
	<path fill="#244D72" d="M578.25,127.431v-25.708c0-11.277,7.881-17.219,17.703-17.219h16.25c9.822,0,17.705,5.942,17.705,17.219
		v13.944c0,2.063-0.244,3.76-3.154,3.76h-33.225c-1.941,0-3.639-0.849-4.73-2.304v10.792c0,4.002,3.154,7.154,7.154,7.154h30.074
		c0.727,0,1.334,0.606,1.334,1.334v8.73h-31.408C586.13,145.134,578.25,137.253,578.25,127.431z M595.953,94.446
		c-4,0-7.154,2.305-7.154,7.155v6.548c0,0.728,0.486,1.213,1.213,1.334h28.254c0.729,0,1.334-0.606,1.334-1.334v-6.548
		c0-4.851-2.303-7.155-7.033-7.155H595.953z"/>
</g>
<path fill="none" d="M57.587,42.788v118.611l34.72-12.541l7.813-106.07H57.587z M72.913,119.505H64.48
	c-1.071,0-1.606-0.536-1.606-1.607V78.278h8.433c1.071,0,1.606,0.536,1.606,1.606V119.505z"/>
<g>
	<path fill="#4F2D29" d="M56.587,41.788v120.612l36.72-12.541l7.813-108.071H56.587z M72.913,119.505H64.48
		c-1.071,0-1.606-0.537-1.606-1.607v-39.62h8.433c1.071,0,1.606,0.536,1.606,1.606V119.505z"/>
</g>
<path fill="#2D1613" d="M4.733,33.125l10.03,124.209l42.678,13.891l42.679-14.232l10.031-123.868H4.733z M52.032,119.505h-8.298
	c-1.071,0-1.473-0.536-1.473-1.607V78.278h8.299c0.937,0,1.472,0.536,1.472,1.606V119.505z M92.307,148.858l-34.72,12.541V42.788
	h42.533L92.307,148.858z"/>
<path id="pause2" fill="#FFFEFE" d="M72.912,119.448h-8.433c-1.071,0-1.606-0.535-1.606-1.605v-39.62h8.433
	c1.071,0,1.606,0.536,1.606,1.606V119.448z"/>
<path id="pause1" fill="#FFFEFE" d="M52.115,79.829v39.62h-8.298c-1.071,0-1.473-0.535-1.473-1.606v-39.62h8.299
	C51.58,78.222,52.115,78.758,52.115,79.829z"/>
</svg>
